<mxfile host="app.diagrams.net" modified="2024-03-18T13:39:19.315Z" agent="Mozilla/5.0 (Windows NT 10.0; Win64; x64) AppleWebKit/537.36 (KHTML, like Gecko) Chrome/122.0.0.0 Safari/537.36 Edg/122.0.0.0" version="22.1.16" etag="NXE7eWA5kUdPSxen8qbl" type="github">
  <diagram name="第 1 页" id="Grxxr61QVeX1p3BDQn12">
    <mxGraphModel>
      <root>
        <mxCell id="0" />
        <mxCell id="1" parent="0" />
      </root>
    </mxGraphModel>
  </diagram>
</mxfile>
